<svg width="295" height="48" viewBox="0 0 295 48" fill="none" xmlns="http://www.w3.org/2000/svg">
<path d="M32.128 4.15999C33.44 4.15999 34.576 4.11199 35.536 4.01599L35.296 4.97599C34.336 5.19999 33.44 5.64799 32.608 6.31999C31.808 6.99199 30.896 8.09599 29.872 9.63199L14.224 33.488C13.04 35.248 11.888 36.56 10.768 37.424C9.648 38.256 8.24001 38.672 6.54401 38.672C4.81601 38.672 3.44001 38.32 2.41601 37.616C1.42401 36.88 0.912005 35.888 0.880005 34.64C0.880005 33.456 1.29601 32.48 2.12801 31.712C2.96001 30.912 3.96801 30.512 5.15201 30.512C6.17601 30.512 6.99201 30.768 7.60001 31.28C8.20801 31.792 8.52801 32.496 8.56001 33.392C8.56001 34.448 8.20801 35.344 7.50401 36.08C6.80001 36.816 5.90401 37.312 4.816 37.568C5.20001 37.728 5.74401 37.808 6.44801 37.808C7.92001 37.808 9.18401 37.408 10.24 36.608C11.296 35.776 12.384 34.496 13.504 32.768L5.488 8.52799C5.104 7.40799 4.656 6.59199 4.144 6.07999C3.632 5.56799 3.00801 5.19999 2.27201 4.97599L2.512 4.01599C4.14401 4.11199 6.52801 4.15999 9.66401 4.15999C12.32 4.15999 14.48 4.11199 16.144 4.01599L15.904 4.97599C14.752 5.03999 13.936 5.18399 13.456 5.40799C13.008 5.63199 12.784 6.04799 12.784 6.65599C12.784 7.23199 12.944 7.99999 13.264 8.95999L18.544 25.184L28.672 9.77599C29.408 8.65599 29.776 7.74399 29.776 7.03999C29.776 6.39999 29.456 5.91999 28.816 5.59999C28.208 5.24799 27.28 5.03999 26.032 4.97599L26.272 4.01599C27.2 4.11199 29.152 4.15999 32.128 4.15999Z" fill="#E6645C"/>
<path d="M43.1684 13.472C41.6004 13.472 40.0644 14.336 38.5604 16.064C37.0884 17.76 35.8884 20 34.9604 22.784C34.0324 25.536 33.5684 28.368 33.5684 31.28C33.5684 34.48 34.7844 36.08 37.2164 36.08C39.5204 36.08 41.6324 34.672 43.5524 31.856L44.5124 32.24C43.3604 34.096 41.8884 35.632 40.0964 36.848C38.3364 38.064 36.3204 38.672 34.0484 38.672C31.7124 38.672 29.8404 38.048 28.4324 36.8C27.0564 35.552 26.3684 33.712 26.3684 31.28C26.3684 28.528 27.0564 25.696 28.4324 22.784C29.8084 19.84 31.7444 17.392 34.2404 15.44C36.7364 13.488 39.5684 12.512 42.7364 12.512C44.4964 12.512 45.9044 12.96 46.9604 13.856C48.0484 14.72 48.5924 15.808 48.5924 17.12C48.5924 17.984 48.3844 18.832 47.9684 19.664C47.5524 20.496 46.9764 21.168 46.2404 21.68C45.5044 22.192 44.7044 22.448 43.8404 22.448C43.0404 22.448 42.3844 22.192 41.8724 21.68C41.3604 21.168 41.1044 20.496 41.1044 19.664C41.1044 18.416 41.5364 17.312 42.4004 16.352C43.2644 15.36 44.2884 14.72 45.4724 14.432C44.9284 13.792 44.1604 13.472 43.1684 13.472Z" fill="#E6645C"/>
<path d="M75.0351 30.224L73.8351 33.728C72.6831 37.024 70.5391 38.672 67.4031 38.672C65.6111 38.672 64.3311 38.144 63.5631 37.088C63.1471 36.48 62.9391 35.728 62.9391 34.832C62.9391 33.808 63.1951 32.544 63.7071 31.04L68.0271 18.08C68.3151 17.216 68.4591 16.528 68.4591 16.016C68.4591 15.28 68.1551 14.912 67.5471 14.912C66.5871 14.912 65.4191 15.888 64.0431 17.84C62.6991 19.792 61.3391 22.368 59.9631 25.568C58.5871 28.736 57.3871 32.08 56.3631 35.6L55.7391 38H48.9711L54.7791 17.264C54.9711 16.688 55.0671 16.176 55.0671 15.728C55.0671 15.152 54.7951 14.864 54.2511 14.864C53.6431 14.864 53.0991 15.152 52.6191 15.728C52.1711 16.272 51.6911 17.248 51.1791 18.656L50.2671 21.104H49.3551L50.6511 17.456C51.2591 15.696 52.0751 14.432 53.0991 13.664C54.1231 12.896 55.3711 12.512 56.8431 12.512C59.5951 12.512 60.9711 13.824 60.9711 16.448C60.9711 17.344 60.8431 18.272 60.5871 19.232L59.0991 25.04C60.4111 21.776 61.6591 19.248 62.8431 17.456C64.0591 15.632 65.2751 14.352 66.4911 13.616C67.7391 12.88 69.1151 12.512 70.6191 12.512C73.4991 12.512 74.9391 13.792 74.9391 16.352C74.9391 17.312 74.7311 18.448 74.3151 19.76L69.6111 33.92C69.4191 34.496 69.3231 34.96 69.3231 35.312C69.3231 35.984 69.6271 36.32 70.2351 36.32C70.7471 36.32 71.2431 36.048 71.7231 35.504C72.2351 34.96 72.7471 33.968 73.2591 32.528L74.1231 30.224H75.0351Z" fill="#E6645C"/>
<path d="M99.589 16.304C99.589 18.96 98.101 21.28 95.125 23.264C92.149 25.248 88.693 26.784 84.757 27.872C84.565 28.96 84.469 30.048 84.469 31.136C84.469 32.832 84.773 34.032 85.381 34.736C86.021 35.44 86.949 35.792 88.165 35.792C89.157 35.792 90.277 35.488 91.525 34.88C92.773 34.24 93.989 33.232 95.173 31.856L95.941 32.24C94.789 34.032 93.237 35.552 91.285 36.8C89.365 38.048 87.205 38.672 84.805 38.672C82.597 38.672 80.789 38.08 79.381 36.896C77.973 35.712 77.269 34.048 77.269 31.904C77.269 29.056 78.037 26.112 79.573 23.072C81.109 20.032 83.205 17.52 85.861 15.536C88.517 13.52 91.429 12.512 94.597 12.512C96.069 12.512 97.269 12.848 98.197 13.52C99.125 14.16 99.589 15.088 99.589 16.304ZM93.541 13.424C92.613 13.424 91.557 14.08 90.373 15.392C89.189 16.704 88.101 18.416 87.109 20.528C86.117 22.608 85.381 24.752 84.901 26.96C87.173 25.968 88.933 24.896 90.181 23.744C91.461 22.592 92.469 21.28 93.205 19.808C93.941 18.304 94.309 16.704 94.309 15.008C94.309 14.4 94.245 13.984 94.117 13.76C93.989 13.536 93.797 13.424 93.541 13.424Z" fill="#E6645C"/>
<path d="M123.049 16.784C123.049 18.736 122.105 20.528 120.217 22.16C118.361 23.792 115.977 25.088 113.065 26.048C115.145 26.016 116.873 26.368 118.249 27.104C119.657 27.84 120.361 28.96 120.361 30.464C120.361 31.744 119.817 33.024 118.729 34.304C117.673 35.584 116.217 36.64 114.361 37.472C112.505 38.272 110.457 38.672 108.217 38.672C105.561 38.672 103.513 38.016 102.073 36.704C100.633 35.36 99.913 33.424 99.913 30.896C99.913 28.144 100.697 25.344 102.265 22.496C103.833 19.616 105.945 17.232 108.601 15.344C111.257 13.456 114.121 12.512 117.193 12.512C118.985 12.512 120.409 12.864 121.465 13.568C122.521 14.272 123.049 15.344 123.049 16.784ZM107.545 26.624C109.337 26.112 111.017 25.328 112.585 24.272C114.153 23.216 115.401 21.936 116.329 20.432C117.289 18.928 117.769 17.296 117.769 15.536C117.769 14.128 117.273 13.424 116.281 13.424C115.321 13.424 114.233 14.032 113.017 15.248C111.833 16.432 110.729 18.048 109.705 20.096C108.713 22.112 107.993 24.288 107.545 26.624ZM114.025 30.608C114.025 29.424 113.801 28.48 113.353 27.776C112.937 27.04 112.361 26.608 111.625 26.48C110.217 26.864 108.809 27.152 107.401 27.344C107.209 28.592 107.113 29.856 107.113 31.136C107.113 33.248 107.385 34.864 107.929 35.984C108.473 37.072 109.209 37.616 110.137 37.616C111.225 37.616 112.137 36.88 112.873 35.408C113.641 33.936 114.025 32.336 114.025 30.608Z" fill="#E6645C"/>
<path d="M147.385 30.224H148.297L147.097 33.728C146.457 35.52 145.561 36.8 144.409 37.568C143.289 38.304 142.073 38.672 140.761 38.672C139.097 38.672 137.913 38.176 137.209 37.184C136.761 36.608 136.537 35.808 136.537 34.784C136.537 33.952 136.681 33.008 136.969 31.952C135.881 34.32 134.665 36.032 133.321 37.088C132.009 38.144 130.553 38.672 128.953 38.672C127.193 38.672 125.849 38.16 124.921 37.136C124.025 36.08 123.577 34.624 123.577 32.768C123.577 29.92 124.329 26.912 125.833 23.744C127.369 20.544 129.305 17.872 131.641 15.728C133.977 13.584 136.265 12.512 138.505 12.512C139.369 12.512 140.057 12.768 140.569 13.28C141.113 13.792 141.433 14.56 141.529 15.584L142.201 13.232C144.761 13.2 147.081 12.96 149.161 12.512L142.873 33.92C142.713 34.464 142.633 34.912 142.633 35.264C142.633 35.968 142.937 36.32 143.545 36.32C144.665 36.32 145.657 35.056 146.521 32.528L147.385 30.224ZM141.001 17.456C141.033 17.296 141.049 17.056 141.049 16.736C141.049 15.936 140.905 15.328 140.617 14.912C140.361 14.496 139.961 14.288 139.417 14.288C138.329 14.288 137.081 15.264 135.673 17.216C134.297 19.168 133.113 21.616 132.121 24.56C131.161 27.504 130.681 30.352 130.681 33.104C130.681 34.16 130.777 34.928 130.969 35.408C131.193 35.856 131.545 36.08 132.025 36.08C132.729 36.08 133.497 35.6 134.329 34.64C135.193 33.648 136.041 32.24 136.873 30.416C137.737 28.56 138.489 26.368 139.129 23.84L138.889 24.992L141.001 17.456Z" fill="#E6645C"/>
<path d="M189.319 30.224L188.119 33.728C186.967 37.024 184.807 38.672 181.639 38.672C179.783 38.672 178.503 38.096 177.799 36.944C177.447 36.4 177.271 35.68 177.271 34.784C177.271 33.728 177.511 32.48 177.991 31.04L182.311 18.08C182.567 17.248 182.695 16.608 182.695 16.16C182.695 15.52 182.471 15.2 182.023 15.2C180.711 15.2 179.127 16.784 177.271 19.952C175.447 23.088 173.607 27.664 171.751 33.68V33.536L170.503 38H163.639L169.495 18.08C169.751 17.248 169.879 16.592 169.879 16.112C169.879 15.504 169.623 15.2 169.111 15.2C167.671 15.2 166.039 16.864 164.215 20.192C162.423 23.52 160.727 27.856 159.127 33.2V33.152L157.879 38H151.111L156.967 17.264C157.127 16.72 157.207 16.256 157.207 15.872C157.207 15.2 156.919 14.864 156.343 14.864C155.767 14.864 155.239 15.168 154.759 15.776C154.311 16.352 153.831 17.312 153.319 18.656L152.407 21.104H151.495L152.791 17.456C153.431 15.696 154.311 14.432 155.431 13.664C156.583 12.896 157.863 12.512 159.271 12.512C160.647 12.512 161.639 12.864 162.247 13.568C162.855 14.272 163.159 15.2 163.159 16.352C163.159 17.184 163.015 18.144 162.727 19.232L161.671 23.36C163.239 19.456 164.839 16.672 166.471 15.008C168.135 13.344 170.119 12.512 172.423 12.512C174.951 12.512 176.215 13.76 176.215 16.256C176.215 17.152 176.023 18.32 175.639 19.76L174.775 22.832C176.375 19.024 177.991 16.352 179.623 14.816C181.287 13.28 183.191 12.512 185.335 12.512C186.679 12.512 187.671 12.848 188.311 13.52C188.951 14.192 189.271 15.104 189.271 16.256C189.271 17.312 189.047 18.48 188.599 19.76L183.895 33.92C183.703 34.528 183.607 34.992 183.607 35.312C183.607 35.984 183.911 36.32 184.519 36.32C185.607 36.32 186.615 35.056 187.543 32.528L188.407 30.224H189.319Z" fill="#E6645C"/>
<path d="M192.076 30.752C192.076 28.128 192.668 25.392 193.852 22.544C195.068 19.696 196.844 17.312 199.18 15.392C201.548 13.472 204.364 12.512 207.628 12.512C210.124 12.512 212.044 13.2 213.388 14.576C214.732 15.92 215.404 17.872 215.404 20.432C215.404 23.056 214.796 25.792 213.58 28.64C212.396 31.488 210.62 33.872 208.252 35.792C205.916 37.712 203.116 38.672 199.852 38.672C197.356 38.672 195.436 38 194.092 36.656C192.748 35.28 192.076 33.312 192.076 30.752ZM207.388 13.472C206.204 13.472 204.908 14.608 203.5 16.88C202.092 19.152 200.908 21.936 199.948 25.232C198.988 28.528 198.508 31.6 198.508 34.448C198.508 35.6 198.636 36.432 198.892 36.944C199.148 37.456 199.564 37.712 200.14 37.712C201.324 37.712 202.604 36.608 203.98 34.4C205.388 32.192 206.572 29.456 207.532 26.192C208.492 22.896 208.972 19.776 208.972 16.832C208.972 15.584 208.844 14.72 208.588 14.24C208.332 13.728 207.932 13.472 207.388 13.472Z" fill="#E6645C"/>
<path d="M248.97 12.512C250.922 12.512 252.394 13.152 253.386 14.432C254.41 15.68 254.922 17.504 254.922 19.904C254.922 22.528 254.33 25.312 253.146 28.256C251.962 31.168 250.282 33.632 248.106 35.648C245.93 37.664 243.418 38.672 240.57 38.672C239.706 38.672 238.906 38.528 238.17 38.24C237.434 37.984 236.826 37.632 236.346 37.184L233.898 46.352C231.242 46.384 228.938 46.608 226.986 47.024L231.114 31.712C229.962 34.144 228.746 35.92 227.466 37.04C226.218 38.128 224.714 38.672 222.954 38.672C221.258 38.672 219.882 38.096 218.826 36.944C217.77 35.792 217.242 34.064 217.242 31.76C217.242 29.2 217.85 26.416 219.066 23.408C220.314 20.368 222.106 17.792 224.442 15.68C226.778 13.568 229.498 12.512 232.602 12.512C234.234 12.512 235.306 13.04 235.818 14.096L235.962 13.616C236.666 10.896 237.466 8.65599 238.362 6.89599C239.29 5.10399 240.378 3.69599 241.626 2.67199C243.386 1.19999 245.626 0.463989 248.346 0.463989C250.33 0.463989 251.882 0.87999 253.002 1.71199C254.154 2.54399 254.73 3.66399 254.73 5.07199C254.73 6.12799 254.298 7.08799 253.434 7.95199C252.602 8.81599 251.562 9.24799 250.314 9.24799C249.354 9.24799 248.602 9.02399 248.058 8.57599C247.514 8.12799 247.242 7.48799 247.242 6.65599C247.242 5.59999 247.562 4.65599 248.202 3.82399C248.874 2.99199 249.77 2.36799 250.89 1.95199C250.762 1.75999 250.554 1.61599 250.266 1.51999C249.978 1.39199 249.642 1.32799 249.258 1.32799C248.33 1.32799 247.498 1.64799 246.762 2.28799C246.186 2.79999 245.674 3.63199 245.226 4.78399C244.81 5.90399 244.33 7.47199 243.786 9.48799L241.05 19.664C242.202 17.168 243.418 15.36 244.698 14.24C245.978 13.088 247.402 12.512 248.97 12.512ZM225.834 36.272C226.698 36.272 227.738 35.44 228.954 33.776C230.17 32.08 231.322 29.744 232.41 26.768L235.53 15.296C235.274 14.688 234.97 14.256 234.618 14C234.298 13.744 233.85 13.616 233.274 13.616C231.962 13.616 230.57 14.608 229.098 16.592C227.658 18.576 226.442 21.088 225.45 24.128C224.458 27.136 223.962 30.08 223.962 32.96C223.962 35.168 224.586 36.272 225.834 36.272ZM238.65 37.28C240.218 37.28 241.738 36.32 243.21 34.4C244.714 32.448 245.914 30.048 246.81 27.2C247.738 24.32 248.202 21.6 248.202 19.04C248.202 17.568 248.042 16.544 247.722 15.968C247.402 15.36 246.938 15.056 246.33 15.056C245.37 15.056 244.282 15.888 243.066 17.552C241.882 19.216 240.842 21.296 239.946 23.792L236.586 36.32C237.13 36.96 237.818 37.28 238.65 37.28Z" fill="#E6645C"/>
<path d="M288.439 12.512C290.391 12.512 291.863 13.152 292.855 14.432C293.879 15.68 294.391 17.504 294.391 19.904C294.391 22.528 293.799 25.312 292.615 28.256C291.431 31.168 289.751 33.632 287.575 35.648C285.399 37.664 282.887 38.672 280.039 38.672C279.175 38.672 278.375 38.528 277.639 38.24C276.903 37.984 276.295 37.632 275.815 37.184L273.367 46.352C270.711 46.384 268.407 46.608 266.455 47.024L270.583 31.712C269.431 34.144 268.215 35.92 266.935 37.04C265.687 38.128 264.183 38.672 262.423 38.672C260.727 38.672 259.351 38.096 258.295 36.944C257.239 35.792 256.711 34.064 256.711 31.76C256.711 29.2 257.319 26.416 258.535 23.408C259.783 20.368 261.575 17.792 263.911 15.68C266.247 13.568 268.967 12.512 272.071 12.512C273.703 12.512 274.775 13.04 275.287 14.096L275.431 13.616C276.135 10.896 276.935 8.65599 277.831 6.89599C278.759 5.10399 279.847 3.69599 281.095 2.67199C282.855 1.19999 285.095 0.463989 287.815 0.463989C289.799 0.463989 291.351 0.87999 292.471 1.71199C293.623 2.54399 294.199 3.66399 294.199 5.07199C294.199 6.12799 293.767 7.08799 292.903 7.95199C292.071 8.81599 291.031 9.24799 289.783 9.24799C288.823 9.24799 288.071 9.02399 287.527 8.57599C286.983 8.12799 286.711 7.48799 286.711 6.65599C286.711 5.59999 287.031 4.65599 287.671 3.82399C288.343 2.99199 289.239 2.36799 290.359 1.95199C290.231 1.75999 290.023 1.61599 289.735 1.51999C289.447 1.39199 289.111 1.32799 288.727 1.32799C287.799 1.32799 286.967 1.64799 286.231 2.28799C285.655 2.79999 285.143 3.63199 284.695 4.78399C284.279 5.90399 283.799 7.47199 283.255 9.48799L280.519 19.664C281.671 17.168 282.887 15.36 284.167 14.24C285.447 13.088 286.871 12.512 288.439 12.512ZM265.303 36.272C266.167 36.272 267.207 35.44 268.423 33.776C269.639 32.08 270.791 29.744 271.879 26.768L274.999 15.296C274.743 14.688 274.439 14.256 274.087 14C273.767 13.744 273.319 13.616 272.743 13.616C271.431 13.616 270.039 14.608 268.567 16.592C267.127 18.576 265.911 21.088 264.919 24.128C263.927 27.136 263.431 30.08 263.431 32.96C263.431 35.168 264.055 36.272 265.303 36.272ZM278.119 37.28C279.687 37.28 281.207 36.32 282.679 34.4C284.183 32.448 285.383 30.048 286.279 27.2C287.207 24.32 287.671 21.6 287.671 19.04C287.671 17.568 287.511 16.544 287.191 15.968C286.871 15.36 286.407 15.056 285.799 15.056C284.839 15.056 283.751 15.888 282.535 17.552C281.351 19.216 280.311 21.296 279.415 23.792L276.055 36.32C276.599 36.96 277.287 37.28 278.119 37.28Z" fill="#E6645C"/>
</svg>
