<svg width="370" height="249" viewBox="0 0 370 249" fill="none" xmlns="http://www.w3.org/2000/svg">
<g clip-path="url(#clip0)">
<path d="M302.167 37H296V30.8333C295.979 13.8118 282.188 0.0210699 265.167 -7.62939e-06H67.8333C50.8118 0.0210699 37.0211 13.8118 37 30.8333V302.167C37.0211 319.188 50.8118 332.979 67.8333 333H74V339.167C74.0211 356.188 87.8118 369.979 104.833 370H302.167C319.188 369.979 332.979 356.188 333 339.167V67.8333C332.979 50.8118 319.188 37.0211 302.167 37ZM246.667 12.3333V40.6133L238.693 32.64C236.285 30.2341 232.382 30.2341 229.973 32.64L222 40.6133V12.3333H246.667ZM49.3333 302.167V30.8333C49.3333 20.6168 57.6168 12.3333 67.8333 12.3333H209.667V55.5C209.667 57.9932 211.169 60.2424 213.473 61.1969C215.776 62.1514 218.429 61.6215 220.193 59.86L234.333 45.72L248.473 59.86C250.238 61.6215 252.891 62.1514 255.194 61.1969C257.497 60.2424 259 57.9932 259 55.5V12.3333H265.167C275.383 12.3333 283.667 20.6168 283.667 30.8333V302.167C283.667 312.383 275.383 320.667 265.167 320.667H67.8333C57.6168 320.667 49.3333 312.383 49.3333 302.167ZM320.667 339.167C320.667 349.383 312.383 357.667 302.167 357.667H104.833C94.6168 357.667 86.3333 349.383 86.3333 339.167V333H265.167C282.188 332.979 295.979 319.188 296 302.167V49.3333H302.167C312.383 49.3333 320.667 57.6168 320.667 67.8333V339.167Z" fill="#A0B8B2"/>
<path d="M135.242 59.5378C134.354 57.129 132.068 55.5181 129.5 55.5H80.1667C76.7611 55.5 74 58.2611 74 61.6667V111C74 114.406 76.7611 117.167 80.1667 117.167H129.5C132.906 117.167 135.667 114.406 135.667 111V76.5534L152.36 59.86L143.64 51.14L135.242 59.5378ZM123.333 104.833H86.3333V67.8333H123.333V71.4466L111 83.7799L103.027 75.8066L94.3066 84.5267L106.64 96.86C109.049 99.2659 112.951 99.2659 115.36 96.86L123.333 88.8867V104.833Z" fill="#A0B8B2"/>
<path d="M143.64 137.473L135.242 145.871C134.354 143.462 132.068 141.851 129.5 141.833H80.1667C76.7611 141.833 74 144.594 74 148V197.333C74 200.739 76.7611 203.5 80.1667 203.5H129.5C132.906 203.5 135.667 200.739 135.667 197.333V162.887L152.36 146.193L143.64 137.473ZM123.333 191.167H86.3333V154.167H123.333V157.78L111 170.113L103.027 162.14L94.3066 170.86L106.64 183.193C109.049 185.599 112.951 185.599 115.36 183.193L123.333 175.22V191.167Z" fill="#A0B8B2"/>
<path d="M129.5 222H80.1667C76.7611 222 74 224.761 74 228.167V277.5C74 280.906 76.7611 283.667 80.1667 283.667H129.5C132.906 283.667 135.667 280.906 135.667 277.5V228.167C135.667 224.761 132.906 222 129.5 222ZM123.333 271.333H86.3333V234.333H123.333V271.333Z" fill="#A0B8B2"/>
<path d="M160.333 92.5H222V104.833H160.333V92.5Z" fill="#A0B8B2"/>
<path d="M160.333 67.8333H197.333V80.1667H160.333V67.8333Z" fill="#A0B8B2"/>
<path d="M160.333 178.833H222V191.167H160.333V178.833Z" fill="#A0B8B2"/>
<path d="M160.333 154.167H197.333V166.5H160.333V154.167Z" fill="#A0B8B2"/>
<path d="M160.333 234.333H197.333V246.667H160.333V234.333Z" fill="#A0B8B2"/>
<path d="M209.667 234.333H222V246.667H209.667V234.333Z" fill="#A0B8B2"/>
</g>
<defs>
<clipPath id="clip0">
<rect width="370" height="370" fill="white"/>
</clipPath>
</defs>
</svg>
