<svg width="371" height="249" viewBox="0 0 371 249" fill="none" xmlns="http://www.w3.org/2000/svg">
<g clip-path="url(#clip0)">
<path d="M62.1795 129.5H74.5129C74.5129 139.717 82.7963 148 93.0129 148C103.229 148 111.513 139.717 111.513 129.5H123.846C127.252 129.5 130.013 126.739 130.013 123.333V117.895C130.007 112.406 128.73 106.992 126.282 102.078C124.683 98.8774 123.852 95.3485 123.846 91.7713V81.2266C123.858 68.6343 116.505 57.2013 105.045 51.9861C105.238 51.1159 105.34 50.2246 105.346 49.3333C105.367 44.5969 102.675 40.264 98.4177 38.1894C94.1601 36.1117 89.0895 36.6597 85.3708 39.5955C81.6521 42.5313 79.9448 47.337 80.9746 51.959C77.7949 53.2537 74.8561 55.0724 72.2817 57.3428C65.853 63.1933 62.1886 71.4767 62.1795 80.1667V91.7713C62.1735 95.3485 61.3425 98.8774 59.7436 102.078C57.2956 106.992 56.0189 112.406 56.0129 117.895V123.333C56.0129 126.739 58.774 129.5 62.1795 129.5ZM93.0129 135.667C89.6074 135.667 86.8462 132.906 86.8462 129.5H99.1795C99.1795 132.906 96.4184 135.667 93.0129 135.667ZM70.8123 107.588C73.2482 102.674 74.5159 97.2605 74.5129 91.7713V80.1667C74.5099 74.9364 76.723 69.9501 80.6013 66.4422C84.4795 62.9343 89.6585 61.2301 94.8617 61.754C104.56 63.0638 111.727 71.4436 111.513 81.2266V91.7713C111.519 97.2605 112.796 102.674 115.244 107.588C116.734 110.569 117.565 113.836 117.68 117.167H68.3462C68.4697 113.833 69.3128 110.566 70.8123 107.588Z" fill="#A0B8B2"/>
<path d="M93.0129 185C144.099 185 185.513 143.586 185.513 92.5C185.513 41.4142 144.099 0 93.0129 0C41.9271 0 0.512878 41.4142 0.512878 92.5C0.570089 143.562 41.9512 184.943 93.0129 185ZM93.0129 12.3333C137.288 12.3333 173.18 48.2253 173.18 92.5C173.18 136.775 137.288 172.667 93.0129 172.667C48.7381 172.667 12.8462 136.775 12.8462 92.5C12.8974 48.2463 48.7592 12.3845 93.0129 12.3333Z" fill="#A0B8B2"/>
<path d="M197.846 24.6667C191.439 24.6667 185.037 25.019 178.669 25.7205L180.024 37.9816C185.943 37.3282 191.893 37 197.846 37C286.396 37 358.18 108.784 358.18 197.333C358.18 285.883 286.396 357.667 197.846 357.667C109.297 357.667 37.5129 285.883 37.5129 197.333C37.5129 191.38 37.8411 185.431 38.4945 179.511L26.2334 178.156C25.5318 184.524 25.1795 190.926 25.1795 197.333C25.1795 292.694 102.486 370 197.846 370C293.207 370 370.513 292.694 370.513 197.333C370.513 101.973 293.207 24.6667 197.846 24.6667Z" fill="#A0B8B2"/>
<path d="M49.9817 190.896C49.8884 193.015 49.8462 195.174 49.8462 197.333C49.8462 279.072 116.108 345.333 197.846 345.333C279.585 345.333 345.846 279.072 345.846 197.333C345.846 115.595 279.585 49.3333 197.846 49.3333C195.687 49.3333 193.528 49.3755 191.409 49.4688L191.951 61.8022C193.905 61.7118 195.868 61.6667 197.846 61.6667C272.774 61.6667 333.513 122.406 333.513 197.333C333.513 272.261 272.774 333 197.846 333C122.919 333 62.1795 272.261 62.1795 197.333C62.1795 195.361 62.2217 193.395 62.309 191.438L49.9817 190.896Z" fill="#A0B8B2"/>
<path d="M191.68 74H204.013V86.3333H191.68V74Z" fill="#A0B8B2"/>
<path d="M74.5129 191.167H86.8462V203.5H74.5129V191.167Z" fill="#A0B8B2"/>
<path d="M308.846 191.167H321.18V203.5H308.846V191.167Z" fill="#A0B8B2"/>
<path d="M271.973 114.49L280.696 105.764L289.419 114.484L280.693 123.21L271.973 114.49Z" fill="#A0B8B2"/>
<path d="M117.68 191.167V203.5H177.853L193.486 219.133C195.895 221.539 199.797 221.539 202.206 219.133L219.646 201.693C222.052 199.284 222.052 195.382 219.646 192.973L204.013 177.34V104.833H191.68V177.34L177.853 191.167H117.68ZM197.846 188.613L206.566 197.333L197.846 206.053L189.126 197.333L197.846 188.613Z" fill="#A0B8B2"/>
</g>
<defs>
<clipPath id="clip0">
<rect width="370" height="370" fill="white" transform="translate(0.512878)"/>
</clipPath>
</defs>
</svg>
